<?xml version="1.0" encoding="utf-8"?>
<!-- Generator: Adobe Illustrator 26.1.0, SVG Export Plug-In . SVG Version: 6.00 Build 0)  -->
<svg version="1.1" id="Camada_1" xmlns="http://www.w3.org/2000/svg" xmlns:xlink="http://www.w3.org/1999/xlink" x="0px" y="0px"
	 viewBox="0 0 839.5 275.7" style="enable-background:new 0 0 839.5 275.7;" xml:space="preserve">
<style type="text/css">
	.st0{fill:#FFFFFF;}
	.st1{stroke:#000000;stroke-width:1.6607;stroke-miterlimit:10;}
</style>
<g>
	<g>
		<rect x="534.9" y="175.6" width="65.6" height="15.9"/>
		<rect x="568.4" y="212.2" width="65.6" height="15.9"/>
		<rect x="602.3" y="243.9" width="65.6" height="15.9"/>
		<path d="M806.6,175.2c-5-5.4-10-8.2-11.8-9.1c-12.2-6.4-17.8-1.6-25-6c-7.5-4.5-7.7-13.3-12.9-40.1c-2.7-13.8-5.3-25.1-7.2-33
			c-2.7-4.8-6.1-10.2-10.4-15.8c-4-5.3-8-9.8-11.7-13.5c-13.9,16.5-22.6,15.1-24.8,14.6c-5.2-1.3-9.4-9.2-17.7-25
			c-6.6-12.5-9.1-19.7-17.2-28.9c-3.1-3.5-5.8-6.1-7.7-7.7c-31.7,25.3-63.3,50.6-95,75.9c46.9,57,93.7,113.9,140.6,170.9H817v-64.2
			C815.8,189.2,813,182,806.6,175.2z M801.2,243.5c-29.5-0.4-59.1-0.9-88.6-1.3C671.7,191,630.9,139.9,590.1,88.8
			c4.1-3.6,8.2-7.2,12.2-10.8c40.2,49.3,80.5,98.5,120.7,147.8h78.2V243.5z M728.9,209.1c-37.8-47.5-75.6-95-113.5-142.4
			c14.8-11.7,29.5-23.5,44.3-35.2c3.1,12.7,9.6,29.8,24,44.3c6.9,7,14.3,14.3,24.9,14c9.3-0.2,16.1-6.2,19-9
			c1.8,1,9.5,5.9,12.2,15.8c1.8,6.8,0.3,12.5-0.5,14.9h-35.7v15.3h38.8c1.3,0.8,2.9,2.2,4.2,4.2c3.8,5.9,1.7,12.7,1.4,13.8h-29v14.2
			H751c6.5,12,12.9,15.4,17.6,16.3c3.8,0.7,5.6-0.4,11.3,0.9c2.7,0.6,8.6,2.1,14,7.3c4.2,4,6.2,8.5,7.2,11.3c0,4.8,0,9.6,0,14.5
			H728.9z"/>
		<path class="st0" d="M801.2,225.8v17.6c-29.5-0.4-59.1-0.9-88.6-1.3C671.7,191,630.9,139.9,590.1,88.8c4.1-3.6,8.2-7.2,12.2-10.8
			c40.2,49.3,80.5,98.5,120.7,147.8H801.2z"/>
		<path class="st0" d="M801.2,209.1h-72.4c-37.8-47.5-75.6-95-113.5-142.4c14.8-11.7,29.5-23.5,44.3-35.2c3.1,12.7,9.6,29.8,24,44.3
			c6.9,7,14.3,14.3,24.9,14c9.3-0.2,16.1-6.2,19-9c1.8,1,9.5,5.9,12.2,15.8c1.8,6.8,0.3,12.5-0.5,14.9h-35.7v15.3h38.8
			c1.3,0.8,2.9,2.2,4.2,4.2c3.8,5.9,1.7,12.7,1.4,13.8h-29v14.2H751c6.5,12,12.9,15.4,17.6,16.3c3.8,0.7,5.6-0.4,11.3,0.9
			c2.7,0.6,8.6,2.1,14,7.3c4.2,4,6.2,8.5,7.2,11.3C801.2,199.4,801.2,204.2,801.2,209.1z"/>
	</g>
	<g>
		<g>
			<path d="M65.1,155.2v12.2H41.4v-64.1h12.1V82.5H12.3c-0.1,7-0.2,14-0.3,21h11.9v64.4H13.1v17.3h71.9v-30H65.1z M79.1,179.4H18.9
				v-5.7h10.9v-76H18l0.1-9.4h29.7v9.2H35.6v75.7h35.3V161h8.2V179.4z"/>
			<polygon class="st0" points="79.1,161 79.1,179.4 18.9,179.4 18.9,173.7 29.7,173.7 29.7,97.7 18,97.7 18.1,88.3 47.7,88.3 
				47.7,97.5 35.6,97.5 35.6,173.2 70.9,173.2 70.9,161 			"/>
		</g>
		<g>
			<path d="M166.6,112.5V83.1H94.1C94.1,90,94,96.8,94,103.6h11.3v61.6H94c0.1,6.8,0.1,13.7,0.2,20.5h72.4v-29.4H146v9.1h-20.4
				v-20.5h20.2v-21.1h-20.2v-20.5H146v9.1H166.6z M119.8,97.6v32.1H140v9.5h-20.2v32.1h32v-9.1h9v17.7H99.9l-0.1-8.9H111V97.8H99.8
				l0.1-8.9h60.9v17.7h-9v-9.1H119.8z"/>
			<polygon class="st0" points="151.8,106.7 151.8,97.6 119.8,97.6 119.8,129.7 140,129.7 140,139.1 119.8,139.1 119.8,171.2 
				151.8,171.2 151.8,162.1 160.8,162.1 160.8,179.9 99.9,179.9 99.8,171 111,171 111,97.8 99.8,97.8 99.9,89 160.8,89 160.8,106.7 
							"/>
		</g>
		<g>
			<path d="M175.6,83.1c-0.1,6.8-0.1,13.7-0.2,20.5h11.3v63.8h-9v17.7c12.6-0.1,25.3-0.1,38-0.2c0.1-5.8,0.2-11.6,0.2-17.4h-11.4
				v-23.4h22.8v-20.2h-20.2v-20.5h20.4v9.1h20.6V83.1H175.6z M242.3,106.7h-9v-9.1h-32v32.1h20.2v8.6h-22.8v35h11.3l-0.1,5.8
				l-26.4,0.1v-6h9V97.8h-11.2l0.1-8.9h60.9V106.7z"/>
			<polygon class="st0" points="242.3,89 242.3,106.7 233.3,106.7 233.3,97.6 201.3,97.6 201.3,129.7 221.5,129.7 221.5,138.3 
				198.7,138.3 198.7,173.3 210.1,173.3 210,179.2 183.5,179.3 183.5,173.3 192.6,173.3 192.6,97.8 181.3,97.8 181.4,89 			"/>
		</g>
		<g>
			<path d="M443.4,83.1c0.1,9.9,0.2,19.9,0.3,29.8c5.6,0,11.1,0,16.7-0.1v-9.5c4.8,0.1,9.6,0.3,14.4,0.4c0.2,21.3,0.4,42.5,0.6,63.7
				H464c0.1,5.8,0.2,11.6,0.3,17.4c5.2,0,10.3,0,15.5,0.1c1.1,0,2.1,0,3.2,0c1.1,0,2.1,0,3.2,0c5.2,0,10.3,0,15.5-0.1
				c0.1-5.8,0.2-11.6,0.3-17.4h-11.4c0.2-21.2,0.4-42.5,0.6-63.7c4.8-0.1,9.6-0.3,14.4-0.4v9.5c5.6,0,11.2,0,16.7,0.1
				c0.1-9.9,0.2-19.9,0.3-29.8H443.4z M516.4,107.1h-5.2v-9.7c-8.7-0.1-17.3-0.2-26-0.3c0.1,12.9,0.2,25.8,0.3,38.7
				c0.1,12.6,0.1,25.1,0.1,37.6H496l-0.1,5.8c0,0-9.9,0-9.9,0c-1,0-2,0-3,0c-1.1,0-2.1,0-3.2,0l-9.8,0l-0.1-5.8h10.5
				c0.1-12.5,0.1-25,0.1-37.6c0-12.6,0-25.1,0-37.6v-1c-8.6,0.1-17.2,0.1-25.8,0.2v9.7h-5.2c-0.1-6.1-0.1-12.1-0.2-18.2h67.3
				C516.5,95,516.5,101,516.4,107.1z"/>
			<path class="st0" d="M516.6,88.9c-0.1,6.1-0.1,12.1-0.2,18.2h-5.2v-9.7c-8.7-0.1-17.3-0.2-26-0.3c0.1,12.9,0.2,25.8,0.3,38.7
				c0.1,12.6,0.1,25.1,0.1,37.6H496l-0.1,5.8c0,0-9.9,0-9.9,0c-1,0-2,0-3,0c-1.1,0-2.1,0-3.2,0l-9.8,0l-0.1-5.8h10.5
				c0.1-12.5,0.1-25,0.1-37.6c0.1-12.5,0.1-25.1,0.1-37.6h-0.1v-1c-8.6,0.1-17.2,0.1-25.8,0.2v9.7h-5.2c-0.1-6.1-0.1-12.1-0.2-18.2
				H516.6z"/>
		</g>
		<g>
			<path d="M330.2,91.3c-7.7-7.6-17-8.1-19.1-8.2h-23.3c-2.2,0.1-11.4,0.6-19.1,8.2c-7.5,7.3-8.6,16.2-8.8,18.5v47.3
				c0,1.9,0.3,13.7,9.9,22.2c7.6,6.8,16.3,7.2,18.8,7.2c3.6,0,7.3-0.1,10.9-0.1c3.6,0.1,7.3,0.1,10.9,0.1c2.4,0,11.1-0.4,18.8-7.2
				c9.5-8.5,9.8-20.3,9.9-22.2v-47.3C338.8,107.5,337.7,98.6,330.2,91.3z M333.2,157.2c0,2.5-0.7,11.3-7.9,17.7
				c-5.7,5.1-12.3,5.7-15,5.8l-10.8-0.1l-11.1,0.1c-2.5,0-9.1-0.7-14.9-5.8c-7.2-6.4-7.9-15.2-7.9-17.8v-47c0.3-2.8,1.6-9.3,7-14.6
				c5.8-5.7,12.6-6.5,15.3-6.5h23.2c2.5,0.1,9.4,0.9,15.1,6.5c5.4,5.3,6.7,11.8,7,14.6V157.2z"/>
			<path class="st0" d="M326.2,95.6c-5.8-5.7-12.6-6.5-15.1-6.5h-23.2c-2.7,0.1-9.5,0.9-15.3,6.5c-5.4,5.3-6.7,11.8-7,14.6v47
				c0,2.5,0.7,11.3,7.9,17.8c5.7,5.1,12.4,5.7,14.9,5.8l11.1-0.1l10.8,0.1c2.7,0,9.3-0.7,15-5.8c7.2-6.4,7.9-15.2,7.9-17.7v-47.1
				C332.9,107.3,331.6,100.8,326.2,95.6z M327.9,151.7c0,1.4-0.3,10.3-7.1,16.7c-5.5,5.1-11.8,5.4-13.5,5.4c-2.6,0-5.2-0.1-7.9-0.1
				c-2.6,0-5.3,0.1-7.9,0.1c-1.7,0-8-0.4-13.5-5.4c-6.9-6.4-7.1-15.2-7.1-16.7v-35.6c0.1-1.7,1-8.5,6.3-14
				c5.6-5.7,12.2-6.1,13.8-6.1h16.8c1.6,0,8.2,0.4,13.8,6.1c5.4,5.5,6.2,12.2,6.3,14V151.7z"/>
			<path class="st1" d="M321.6,102.1c-5.6-5.7-12.2-6.1-13.8-6.1H291c-1.6,0-8.2,0.4-13.8,6.1c-5.4,5.5-6.2,12.2-6.3,14v35.6
				c0,1.4,0.3,10.3,7.1,16.7c5.5,5.1,11.7,5.4,13.5,5.4c2.6,0,5.2-0.1,7.9-0.1c2.6,0,5.2,0.1,7.9,0.1c1.7,0,8-0.4,13.5-5.4
				c6.8-6.4,7.1-15.2,7.1-16.7v-35.6C327.8,114.3,327,107.6,321.6,102.1z M323.7,151.7c0,1.9-0.5,8.5-5.7,13.3
				c-4.1,3.8-8.8,4.3-10.8,4.4l-7.8-0.1l-8,0.1c-1.8,0-6.6-0.5-10.7-4.4c-5.2-4.8-5.7-11.4-5.7-13.3v-35.4c0.2-2.1,1.1-7,5-10.9
				c4.1-4.3,9.1-4.9,11-4.9h16.7c1.8,0.1,6.8,0.7,10.9,4.9c3.9,4,4.8,8.8,5,10.9V151.7z"/>
		</g>
		<g>
			<path d="M422,91.3c-7.7-7.6-17-8.1-19.1-8.2h-23.3c-2.2,0.1-11.4,0.6-19.1,8.2c-7.5,7.3-8.6,16.2-8.8,18.5v47.3
				c0,1.9,0.3,13.7,9.9,22.2c7.6,6.8,16.3,7.2,18.8,7.2c3.6,0,7.3-0.1,10.9-0.1c3.6,0.1,7.3,0.1,10.9,0.1c2.4,0,11.1-0.4,18.8-7.2
				c9.5-8.5,9.8-20.3,9.9-22.2v-47.3C430.6,107.5,429.5,98.6,422,91.3z M425,157.2c0,2.5-0.7,11.3-7.9,17.7
				c-5.7,5.1-12.3,5.7-15,5.8l-10.8-0.1l-11.1,0.1c-2.5,0-9.1-0.7-14.9-5.8c-7.2-6.4-7.9-15.2-7.9-17.8v-47c0.3-2.8,1.6-9.3,7-14.6
				c5.8-5.7,12.6-6.5,15.3-6.5h23.2c2.5,0.1,9.4,0.9,15.1,6.5c5.4,5.3,6.7,11.8,7,14.6V157.2z"/>
			<path class="st0" d="M418,95.6c-5.8-5.7-12.6-6.5-15.1-6.5h-23.2c-2.7,0.1-9.5,0.9-15.3,6.5c-5.4,5.3-6.7,11.8-7,14.6v47
				c0,2.5,0.7,11.3,7.9,17.8c5.7,5.1,12.4,5.7,14.9,5.8l11.1-0.1l10.8,0.1c2.7,0,9.3-0.7,15-5.8c7.2-6.4,7.9-15.2,7.9-17.7v-47.1
				C424.7,107.3,423.4,100.8,418,95.6z M419.7,151.7c0,1.4-0.3,10.3-7.1,16.7c-5.5,5.1-11.8,5.4-13.5,5.4c-2.6,0-5.2-0.1-7.9-0.1
				c-2.6,0-5.3,0.1-7.9,0.1c-1.7,0-8-0.4-13.5-5.4c-6.9-6.4-7.1-15.2-7.1-16.7v-35.6c0.1-1.7,1-8.5,6.3-14
				c5.6-5.7,12.2-6.1,13.8-6.1h16.8c1.6,0,8.2,0.4,13.8,6.1c5.4,5.5,6.2,12.2,6.3,14V151.7z"/>
			<path class="st1" d="M413.4,102.1c-5.6-5.7-12.2-6.1-13.8-6.1h-16.8c-1.6,0-8.2,0.4-13.8,6.1c-5.4,5.5-6.2,12.2-6.3,14v35.6
				c0,1.4,0.3,10.3,7.1,16.7c5.5,5.1,11.7,5.4,13.5,5.4c2.6,0,5.2-0.1,7.9-0.1c2.6,0,5.2,0.1,7.9,0.1c1.7,0,8-0.4,13.5-5.4
				c6.8-6.4,7.1-15.2,7.1-16.7v-35.6C419.6,114.3,418.7,107.6,413.4,102.1z M415.5,151.7c0,1.9-0.5,8.5-5.7,13.3
				c-4.1,3.8-8.8,4.3-10.8,4.4l-7.8-0.1l-8,0.1c-1.8,0-6.6-0.5-10.7-4.4c-5.2-4.8-5.7-11.4-5.7-13.3v-35.4c0.2-2.1,1.1-7,5-10.9
				c4.1-4.3,9.1-4.9,11-4.9h16.7c1.8,0.1,6.8,0.7,10.9,4.9c3.9,4,4.8,8.8,5,10.9V151.7z"/>
		</g>
	</g>
</g>
</svg>
